<svg width="24" height="25" viewBox="0 0 24 25" fill="none" xmlns="http://www.w3.org/2000/svg">
<path d="M0 12.5C0 5.89062 5.34375 0.5 12 0.5C18.6094 0.5 24 5.89062 24 12.5C24 19.1562 18.6094 24.5 12 24.5C5.34375 24.5 0 19.1562 0 12.5ZM12 17.75C12.6094 17.75 13.125 17.2812 13.125 16.625V13.625H16.125C16.7344 13.625 17.25 13.1562 17.25 12.5C17.25 11.8906 16.7344 11.375 16.125 11.375H13.125V8.375C13.125 7.76562 12.6094 7.25 12 7.25C11.3438 7.25 10.875 7.76562 10.875 8.375V11.375H7.875C7.21875 11.375 6.75 11.8906 6.75 12.5C6.75 13.1562 7.21875 13.625 7.875 13.625H10.875V16.625C10.875 17.2812 11.3438 17.75 12 17.75Z" fill="#212121"/>
</svg>
