<svg width="14" height="14" viewBox="0 0 14 14" fill="none" xmlns="http://www.w3.org/2000/svg">
<path d="M7 7C5.875 7 5 7.90625 5 9C5 10.125 5.875 11 7 11C8.09375 11 9 10.125 9 9C9 7.90625 8.09375 7 7 7ZM13.5312 3.0625L10.9062 0.4375C10.6562 0.1875 10.25 0 9.875 0H2C0.875 0 0 0.90625 0 2V12C0 13.125 0.875 14 2 14H12C13.0938 14 14 13.125 14 12V4.125C14 3.75 13.8125 3.34375 13.5312 3.0625ZM4 1.5H8.5V4H4V1.5ZM12.5 12C12.5 12.2812 12.25 12.5 12 12.5H2C1.71875 12.5 1.5 12.2812 1.5 12V2C1.5 1.75 1.71875 1.5 2 1.5H2.5V4.75C2.5 5.1875 2.8125 5.5 3.25 5.5H9.25C9.65625 5.5 10 5.1875 10 4.75V1.625L12.4375 4.09375C12.4688 4.125 12.5 4.15625 12.5 4.21875V12Z" fill="#BDBDBD"/>
</svg>
