<svg width="30" height="30" viewBox="0 0 30 30" fill="none" xmlns="http://www.w3.org/2000/svg">
<path d="M10.9375 7.02344C11.2891 7.375 11.3281 7.96094 10.9766 8.35156L8.16406 11.4766C8.00781 11.6328 7.77344 11.75 7.5 11.75C7.26562 11.7891 6.99219 11.6719 6.83594 11.4766L5.27344 9.91406C4.88281 9.5625 4.88281 8.97656 5.27344 8.625C5.625 8.23438 6.21094 8.23438 6.5625 8.625L7.46094 9.48438L9.60938 7.0625C9.96094 6.71094 10.5469 6.67188 10.9375 7.02344ZM10.9375 13.2734C11.2891 13.5859 11.3281 14.2109 10.9766 14.6016L8.16406 17.7266C8.00781 17.8828 7.77344 18 7.5 18C7.26562 18.0391 6.99219 17.9219 6.83594 17.7266L5.27344 16.1641C4.88281 15.8125 4.88281 15.2266 5.27344 14.8359C5.625 14.4844 6.21094 14.4844 6.5625 14.8359L7.46094 15.7344L9.60938 13.3125C9.96094 12.9609 10.5469 12.9219 10.9375 13.2734ZM13.75 9.25C13.75 8.58594 14.2969 8 15 8H23.75C24.4141 8 25 8.58594 25 9.25C25 9.95312 24.4141 10.5 23.75 10.5H15C14.2969 10.5 13.75 9.95312 13.75 9.25ZM13.75 15.5C13.75 14.8359 14.2969 14.25 15 14.25H23.75C24.4141 14.25 25 14.8359 25 15.5C25 16.2031 24.4141 16.75 23.75 16.75H15C14.2969 16.75 13.75 16.2031 13.75 15.5ZM11.25 21.75C11.25 21.0859 11.7969 20.5 12.5 20.5H23.75C24.4141 20.5 25 21.0859 25 21.75C25 22.4531 24.4141 23 23.75 23H12.5C11.7969 23 11.25 22.4531 11.25 21.75ZM5 21.75C5 20.7344 5.82031 19.875 6.875 19.875C7.89062 19.875 8.75 20.7344 8.75 21.75C8.75 22.8047 7.89062 23.625 6.875 23.625C5.82031 23.625 5 22.8047 5 21.75Z" fill="#212121"/>
</svg>
