<svg width="30" height="30" viewBox="0 0 30 30" fill="none" xmlns="http://www.w3.org/2000/svg">
<path d="M15.625 5.5C16.6406 5.5 17.5 6.35938 17.5 7.375V19.875C15.9766 20.7344 15 22.2969 15 24.1328C15 24.6406 15.1172 25.1094 15.3516 25.5H11.875V22.375C11.875 21.3594 11.0156 20.5 10 20.5C8.94531 20.5 8.125 21.3594 8.125 22.375V25.5H4.375C3.32031 25.5 2.5 24.6797 2.5 23.625V7.375C2.5 6.35938 3.32031 5.5 4.375 5.5H15.625ZM5 16.125C5 16.4766 5.27344 16.75 5.625 16.75H6.875C7.1875 16.75 7.5 16.4766 7.5 16.125V14.875C7.5 14.5625 7.1875 14.25 6.875 14.25H5.625C5.27344 14.25 5 14.5625 5 14.875V16.125ZM9.375 14.25C9.02344 14.25 8.75 14.5625 8.75 14.875V16.125C8.75 16.4766 9.02344 16.75 9.375 16.75H10.625C10.9375 16.75 11.25 16.4766 11.25 16.125V14.875C11.25 14.5625 10.9375 14.25 10.625 14.25H9.375ZM12.5 16.125C12.5 16.4766 12.7734 16.75 13.125 16.75H14.375C14.6875 16.75 15 16.4766 15 16.125V14.875C15 14.5625 14.6875 14.25 14.375 14.25H13.125C12.7734 14.25 12.5 14.5625 12.5 14.875V16.125ZM5.625 9.25C5.27344 9.25 5 9.5625 5 9.875V11.125C5 11.4766 5.27344 11.75 5.625 11.75H6.875C7.1875 11.75 7.5 11.4766 7.5 11.125V9.875C7.5 9.5625 7.1875 9.25 6.875 9.25H5.625ZM8.75 11.125C8.75 11.4766 9.02344 11.75 9.375 11.75H10.625C10.9375 11.75 11.25 11.4766 11.25 11.125V9.875C11.25 9.5625 10.9375 9.25 10.625 9.25H9.375C9.02344 9.25 8.75 9.5625 8.75 9.875V11.125ZM13.125 9.25C12.7734 9.25 12.5 9.5625 12.5 9.875V11.125C12.5 11.4766 12.7734 11.75 13.125 11.75H14.375C14.6875 11.75 15 11.4766 15 11.125V9.875C15 9.5625 14.6875 9.25 14.375 9.25H13.125ZM25 16.125C25 17.8828 23.5938 19.25 21.875 19.25C20.1172 19.25 18.75 17.8828 18.75 16.125C18.75 14.4062 20.1172 13 21.875 13C23.5938 13 25 14.4062 25 16.125ZM16.25 24.1719C16.25 22.1406 17.8516 20.5 19.8828 20.5H23.8281C25.8594 20.5 27.5 22.1406 27.5 24.1719C27.5 24.9141 26.875 25.5 26.1328 25.5H17.5781C16.8359 25.5 16.25 24.9141 16.25 24.1719Z" fill="#2196F3"/>
</svg>
