<svg width="16" height="17" viewBox="0 0 16 17" fill="none" xmlns="http://www.w3.org/2000/svg">
<path d="M0 8.5C0 12.9375 3.5625 16.5 8 16.5C12.4062 16.5 16 12.9375 16 8.5C16 4.09375 12.4062 0.5 8 0.5C3.5625 0.5 0 4.09375 0 8.5ZM9.28125 12.5312C8.96875 12.8438 8.5 12.8438 8.21875 12.5312C7.90625 12.25 7.90625 11.7812 8.21875 11.5L10.4375 9.28125L3.75 9.25C3.3125 9.25 3 8.9375 3 8.5C3 8.09375 3.3125 7.75 3.75 7.75H10.4375L8.21875 5.53125C7.90625 5.25 7.90625 4.78125 8.21875 4.5C8.5 4.1875 8.96875 4.1875 9.28125 4.5L12.7812 7.96875C13.0625 8.28125 13.0625 8.75 12.7812 9.03125L9.28125 12.5312Z" fill="#B0BEC5"/>
</svg>
