<svg width="18" height="18" viewBox="0 0 18 18" fill="none" xmlns="http://www.w3.org/2000/svg">
<path d="M8.09375 1.375C8.59375 0.90625 9.375 0.90625 9.875 1.375L16.625 8.125C17.0938 8.625 17.0938 9.40625 16.625 9.90625L9.875 16.6562C9.375 17.125 8.59375 17.125 8.09375 16.6562L1.34375 9.90625C0.875 9.40625 0.875 8.625 1.34375 8.125L8.09375 1.375ZM9 5C8.5625 5 8.25 5.34375 8.25 5.75V9.25C8.25 9.6875 8.5625 10 9 10C9.40625 10 9.75 9.6875 9.75 9.25V5.75C9.75 5.34375 9.40625 5 9 5ZM10 12C10 11.4688 9.53125 11 9 11C8.4375 11 8 11.4688 8 12C8 12.5625 8.4375 13 9 13C9.53125 13 10 12.5625 10 12Z" fill="#FFA000"/>
</svg>
