<svg width="24" height="24" viewBox="0 0 24 24" fill="none" xmlns="http://www.w3.org/2000/svg">
<path d="M12 24C18.6094 24 24 18.6562 24 12C24 5.39062 18.6094 0 12 0C5.34375 0 0 5.39062 0 12C0 18.6562 5.34375 24 12 24ZM17.2969 9.79688L11.2969 15.7969C10.8281 16.2656 10.125 16.2656 9.70312 15.7969L6.70312 12.7969C6.23438 12.375 6.23438 11.6719 6.70312 11.25C7.125 10.7812 7.82812 10.7812 8.29688 11.25L10.5 13.4531L15.7031 8.20312C16.125 7.78125 16.8281 7.78125 17.25 8.20312C17.7188 8.67188 17.7188 9.375 17.25 9.79688H17.2969Z" fill="#00BFA5"/>
</svg>
