<svg width="12" height="16" viewBox="0 0 12 16" fill="none" xmlns="http://www.w3.org/2000/svg">
<path d="M1.5 0C0.65625 0 0 0.6875 0 1.5V14.5C0 15.3438 0.65625 16 1.5 16H4.5V13.5C4.5 12.6875 5.15625 12 6 12C6.8125 12 7.5 12.6875 7.5 13.5V16H10.5C11.3125 16 12 15.3438 12 14.5V1.5C12 0.6875 11.3125 0 10.5 0H1.5ZM2 7.5C2 7.25 2.21875 7 2.5 7H3.5C3.75 7 4 7.25 4 7.5V8.5C4 8.78125 3.75 9 3.5 9H2.5C2.21875 9 2 8.78125 2 8.5V7.5ZM5.5 7H6.5C6.75 7 7 7.25 7 7.5V8.5C7 8.78125 6.75 9 6.5 9H5.5C5.21875 9 5 8.78125 5 8.5V7.5C5 7.25 5.21875 7 5.5 7ZM8 7.5C8 7.25 8.21875 7 8.5 7H9.5C9.75 7 10 7.25 10 7.5V8.5C10 8.78125 9.75 9 9.5 9H8.5C8.21875 9 8 8.78125 8 8.5V7.5ZM2.5 3H3.5C3.75 3 4 3.25 4 3.5V4.5C4 4.78125 3.75 5 3.5 5H2.5C2.21875 5 2 4.78125 2 4.5V3.5C2 3.25 2.21875 3 2.5 3ZM5 3.5C5 3.25 5.21875 3 5.5 3H6.5C6.75 3 7 3.25 7 3.5V4.5C7 4.78125 6.75 5 6.5 5H5.5C5.21875 5 5 4.78125 5 4.5V3.5ZM8.5 3H9.5C9.75 3 10 3.25 10 3.5V4.5C10 4.78125 9.75 5 9.5 5H8.5C8.21875 5 8 4.78125 8 4.5V3.5C8 3.25 8.21875 3 8.5 3Z" fill="#FFF8E1"/>
</svg>
