<svg width="30" height="30" viewBox="0 0 30 30" fill="none" xmlns="http://www.w3.org/2000/svg">
<rect width="30" height="30" rx="15" fill="#212121"/>
<path d="M10.625 20.875C10.1328 20.875 9.75 20.4922 9.75 20C9.75 19.5352 10.1328 19.125 10.625 19.125H19.375C19.8398 19.125 20.25 19.5352 20.25 20C20.25 20.4922 19.8398 20.875 19.375 20.875H10.625ZM15.6016 17.1289C15.2734 17.4844 14.6992 17.4844 14.3711 17.1289L10.8711 13.6289C10.5156 13.3008 10.5156 12.7266 10.8711 12.3984C11.1992 12.043 11.7734 12.043 12.1016 12.3984L14.125 14.3945V9.5C14.125 9.03516 14.5078 8.625 15 8.625C15.4648 8.625 15.875 9.03516 15.875 9.5V14.3945L17.8711 12.3984C18.1992 12.043 18.7734 12.043 19.1016 12.3984C19.457 12.7266 19.457 13.3008 19.1016 13.6289L15.6016 17.1289Z" fill="white"/>
</svg>
