<svg width="30" height="30" viewBox="0 0 30 30" fill="none" xmlns="http://www.w3.org/2000/svg">
<rect width="30" height="30" rx="15" fill="#212121"/>
<path d="M10.625 8.625C10.1328 8.625 9.75 9.03516 9.75 9.5C9.75 9.99219 10.1328 10.375 10.625 10.375H19.375C19.8398 10.375 20.25 9.99219 20.25 9.5C20.25 9.03516 19.8398 8.625 19.375 8.625H10.625ZM15.6016 12.3984C15.2734 12.043 14.6992 12.043 14.3711 12.3984L10.8711 15.8984C10.5156 16.2266 10.5156 16.8008 10.8711 17.1289C11.1992 17.4844 11.7734 17.4844 12.1016 17.1289L14.125 15.1328V20C14.125 20.4922 14.5078 20.875 15 20.875C15.4648 20.875 15.875 20.4922 15.875 20V15.1328L17.8711 17.1289C18.1992 17.4844 18.7734 17.4844 19.1016 17.1289C19.457 16.8008 19.457 16.2266 19.1016 15.8984L15.6016 12.3984Z" fill="white"/>
</svg>
