<svg width="33" height="13" viewBox="0 0 33 13" fill="none" xmlns="http://www.w3.org/2000/svg">
<path d="M7.90434 12.77L6.73434 11.015C6.40434 11.075 6.06934 11.105 5.72934 11.105C4.73934 11.105 3.82934 10.875 2.99934 10.415C2.16934 9.945 1.50934 9.3 1.01934 8.48C0.539336 7.65 0.299336 6.715 0.299336 5.675C0.299336 4.635 0.539336 3.705 1.01934 2.885C1.50934 2.055 2.16934 1.41 2.99934 0.95C3.82934 0.49 4.73934 0.26 5.72934 0.26C6.72934 0.26 7.63934 0.49 8.45934 0.95C9.28934 1.41 9.94434 2.055 10.4243 2.885C10.9043 3.705 11.1443 4.635 11.1443 5.675C11.1443 6.545 10.9693 7.35 10.6193 8.09C10.2693 8.82 9.78934 9.43 9.17934 9.92L11.4143 12.77H7.90434ZM3.29934 5.675C3.29934 6.505 3.51434 7.165 3.94434 7.655C4.37434 8.135 4.96934 8.375 5.72934 8.375C6.47934 8.375 7.06934 8.13 7.49934 7.64C7.93934 7.15 8.15934 6.495 8.15934 5.675C8.15934 4.835 7.93934 4.175 7.49934 3.695C7.06934 3.205 6.47934 2.96 5.72934 2.96C4.96934 2.96 4.37434 3.205 3.94434 3.695C3.51434 4.175 3.29934 4.835 3.29934 5.675ZM19.1706 9.275H15.4206L14.8506 11H11.7606L15.6156 0.424999H19.0056L22.8456 11H19.7406L19.1706 9.275ZM18.4356 7.025L17.2956 3.605L16.1706 7.025H18.4356ZM32.1589 3.95C32.1589 4.59 32.0089 5.175 31.7089 5.705C31.4189 6.225 30.9739 6.645 30.3739 6.965C29.7839 7.275 29.0589 7.43 28.1989 7.43H26.7439V11H23.8039V0.424999H28.1989C29.0489 0.424999 29.7689 0.575 30.3589 0.875C30.9589 1.175 31.4089 1.59 31.7089 2.12C32.0089 2.65 32.1589 3.26 32.1589 3.95ZM27.9139 5.09C28.7439 5.09 29.1589 4.71 29.1589 3.95C29.1589 3.18 28.7439 2.795 27.9139 2.795H26.7439V5.09H27.9139Z" fill="white"/>
</svg>
