<svg width="13" height="16" viewBox="0 0 13 16" fill="none" xmlns="http://www.w3.org/2000/svg">
<path d="M9.89844 5.14453C9.15625 5.14453 8.43359 5.4375 7.90625 5.96484L6.5 7.37109L5.07422 5.96484C4.54688 5.4375 3.82422 5.125 3.08203 5.125C1.51953 5.14453 0.25 6.41406 0.25 7.97656V8.54297C0.25 10.1055 1.51953 11.375 3.08203 11.375C3.82422 11.375 4.54688 11.082 5.07422 10.5547L6.5 9.14844L7.90625 10.5547C8.43359 11.082 9.15625 11.3945 9.89844 11.3945C11.4609 11.375 12.75 10.1055 12.75 8.54297V7.97656C12.75 6.41406 11.4609 5.14453 9.89844 5.14453ZM4.19531 9.67578C3.90234 9.96875 3.49219 10.1445 3.08203 10.1445C2.20312 10.125 1.5 9.42188 1.5 8.54297V7.97656C1.5 7.09766 2.20312 6.39453 3.08203 6.39453C3.49219 6.39453 3.90234 6.55078 4.19531 6.84375L5.60156 8.26953L4.19531 9.67578ZM11.5 8.54297C11.5 9.42188 10.7773 10.1445 9.89844 10.1445C9.48828 10.1445 9.07812 9.96875 8.78516 9.67578L7.37891 8.26953L8.78516 6.84375C9.07812 6.55078 9.48828 6.39453 9.89844 6.39453C10.7773 6.375 11.5 7.09766 11.5 7.97656V8.54297Z" fill="#757575"/>
</svg>
