<svg width="14" height="16" viewBox="0 0 14 16" fill="none" xmlns="http://www.w3.org/2000/svg">
<path d="M13.7266 8.5C13.7266 8.92188 13.375 9.25 12.9766 9.25H12.2266L12.25 13C12.25 13.0703 12.25 13.1406 12.25 13.1875V13.5625C12.25 14.1016 11.8281 14.5 11.3125 14.5H10.9375C10.8906 14.5 10.8672 14.5 10.8438 14.5C10.8203 14.5 10.7734 14.5 10.75 14.5H9.4375C8.89844 14.5 8.5 14.1016 8.5 13.5625V11.5C8.5 11.1016 8.14844 10.75 7.75 10.75H6.25C5.82812 10.75 5.5 11.1016 5.5 11.5V13.5625C5.5 14.1016 5.07812 14.5 4.5625 14.5H3.25C3.20312 14.5 3.17969 14.5 3.13281 14.5C3.10938 14.5 3.08594 14.5 3.0625 14.5H2.6875C2.14844 14.5 1.75 14.1016 1.75 13.5625V10.9375C1.75 10.9375 1.75 10.9141 1.75 10.8906V9.25H1C0.578125 9.25 0.25 8.92188 0.25 8.5C0.25 8.28906 0.320312 8.10156 0.484375 7.9375L6.48438 2.71094C6.64844 2.54688 6.83594 2.5 7 2.5C7.16406 2.5 7.35156 2.57031 7.49219 2.6875L13.4688 7.9375C13.6562 8.10156 13.75 8.28906 13.7266 8.5Z" fill="#757575"/>
</svg>
