<svg width="30" height="30" viewBox="0 0 30 30" fill="none" xmlns="http://www.w3.org/2000/svg">
<path d="M16.5 4.5V5.4375C19.9219 6.14062 22.5 9.14062 22.5 12.75V13.6406C22.5 15.8438 23.2969 18 24.75 19.6406L25.0781 20.0156C25.5 20.4844 25.5938 21.0938 25.3594 21.6562C25.125 22.1719 24.5625 22.5 24 22.5H6C5.39062 22.5 4.82812 22.1719 4.59375 21.6562C4.35938 21.0938 4.45312 20.4844 4.875 20.0156L5.20312 19.6406C6.65625 18 7.5 15.8438 7.5 13.6406V12.75C7.5 9.14062 10.0312 6.14062 13.5 5.4375V4.5C13.5 3.70312 14.1562 3 15 3C15.7969 3 16.5 3.70312 16.5 4.5ZM15 27C14.2031 27 13.4062 26.7188 12.8438 26.1562C12.2812 25.5938 12 24.7969 12 24H18C18 24.7969 17.6719 25.5938 17.1094 26.1562C16.5469 26.7188 15.75 27 15 27Z" fill="#193154"/>
</svg>
