<svg width="92" height="40" viewBox="0 0 92 40" fill="none" xmlns="http://www.w3.org/2000/svg">
<path fill-rule="evenodd" clip-rule="evenodd" d="M42.0699 19.9998C42.0699 9.3708 50.7223 0.756836 61.3925 0.756836C65.984 0.756836 70.2024 2.35214 73.5179 5.01652L73.7072 5.16863L73.3425 5.62332L73.1532 5.47122C69.9376 2.88712 65.8469 1.33996 61.3925 1.33996C51.0412 1.33996 42.6525 9.69566 42.6525 19.9998C42.6525 30.3039 51.0412 38.6596 61.3925 38.6596C65.8469 38.6596 69.9376 37.1125 73.1532 34.5284L73.3425 34.3763L73.7072 34.831L73.5179 34.9831C70.2024 37.6475 65.984 39.2428 61.3925 39.2428C50.7223 39.2428 42.0699 30.6288 42.0699 19.9998ZM14.0471 1.65581H27.0781L40.4714 38.5772H39.8635L26.6697 2.14175H14.4555L1.26169 38.5772H0.653809L14.0471 1.65581ZM80.0353 1.65581H80.6179V38.5772H80.0353V1.65581ZM90.9104 1.65581H91.4929V38.5772H90.9104V1.65581ZM52.9449 19.9998C52.9449 15.1063 57.0406 11.1558 62.0721 11.1558C63.8579 11.1558 65.5251 11.653 66.9332 12.5131L67.1404 12.6397L66.8369 13.1374L66.6297 13.0108C65.3112 12.2055 63.7487 11.7389 62.0721 11.7389C57.3438 11.7389 53.5275 15.4466 53.5275 19.9998C53.5275 24.553 57.3438 28.2607 62.0721 28.2607C63.7487 28.2607 65.3112 27.7941 66.6297 26.9888L66.8369 26.8622L67.1403 27.36L66.9332 27.4865C65.5251 28.3466 63.8579 28.8438 62.0721 28.8438C57.0406 28.8438 52.9449 24.8934 52.9449 19.9998ZM20.5131 15.8272L27.7376 38.5772H27.1357L20.515 17.7571L13.9413 38.5772H13.3397L20.5131 15.8272Z" fill="black"/>
</svg>
