<svg width="30" height="30" viewBox="0 0 30 30" fill="none" xmlns="http://www.w3.org/2000/svg">
<path d="M14.9609 18C17.2266 18 19.0234 16.2031 19.0234 13.9375C19.0234 11.7109 17.1875 9.875 14.9609 9.875C12.7344 9.875 10.9375 11.7109 10.9375 13.9375C10.8984 16.2031 12.7344 18 14.9609 18ZM16.9141 19.25H13.0469C9.96094 19.25 7.5 21.5938 7.5 24.4844C7.5 25.0703 7.96875 25.5 8.59375 25.5H21.3672C21.9922 25.5 22.5 25.0703 22.5 24.4844C22.5 21.5938 20 19.25 16.9141 19.25ZM22.5 11.75C24.2188 11.75 25.625 10.3828 25.625 8.625C25.625 6.90625 24.2188 5.5 22.5 5.5C20.7422 5.5 19.375 6.90625 19.375 8.625C19.375 10.3828 20.7422 11.75 22.5 11.75ZM9.64844 13.9375C9.64844 13.7422 9.6875 13.5469 9.72656 13.3516C9.29688 13.1172 8.82812 13 8.32031 13H5.9375C4.02344 13 2.5 14.6406 2.5 16.6719C2.5 17.0625 2.77344 17.375 3.16406 17.375H10.9766C10.1562 16.4766 9.64844 15.2656 9.64844 13.9375ZM7.5 11.75C9.21875 11.75 10.625 10.3828 10.625 8.625C10.625 6.90625 9.21875 5.5 7.5 5.5C5.74219 5.5 4.375 6.90625 4.375 8.625C4.375 10.3828 5.74219 11.75 7.5 11.75ZM24.0234 13H21.6406C21.1328 13 20.6641 13.1562 20.2344 13.3516C20.2344 13.5469 20.2734 13.7422 20.2734 13.9375C20.2734 15.2656 19.8047 16.4766 18.9844 17.375H26.7969C27.1875 17.375 27.5 17.0625 27.5 16.6719C27.5 14.6406 25.9375 13 24.0234 13Z" fill="#263238"/>
</svg>
