<svg width="30" height="30" viewBox="0 0 30 30" fill="none" xmlns="http://www.w3.org/2000/svg">
<path d="M24.3359 12.0234C24.4922 12.375 24.375 12.7266 24.1016 13L22.4219 14.5234C22.4609 14.8359 22.5 15.1875 22.5 15.5C22.5 15.8516 22.4609 16.2031 22.4219 16.5156L24.1016 18.0391C24.375 18.3125 24.4922 18.6641 24.3359 19.0156C24.1797 19.4844 23.9844 19.9141 23.75 20.3438L23.5547 20.6562C23.2812 21.0859 23.0078 21.5156 22.6953 21.9062C22.4609 22.1797 22.0703 22.2578 21.7188 22.1406L19.5703 21.4766C19.0234 21.8672 18.4375 22.1797 17.8516 22.4531L17.3438 24.6797C17.2656 25.0312 16.9922 25.3047 16.6406 25.3828C16.0938 25.4609 15.5469 25.5 14.9609 25.5C14.4141 25.5 13.8672 25.4609 13.3203 25.3828C12.9688 25.3047 12.6953 25.0312 12.6172 24.6797L12.1094 22.4531C11.5234 22.1797 10.9375 21.8672 10.3906 21.4766L8.24219 22.1406C7.89062 22.2578 7.5 22.1797 7.26562 21.9062C6.95312 21.5156 6.67969 21.0859 6.40625 20.6562L6.21094 20.3438C5.97656 19.9141 5.78125 19.4844 5.625 19.0156C5.46875 18.6641 5.58594 18.3125 5.85938 18.0391L7.53906 16.5156C7.5 16.2031 7.5 15.8516 7.5 15.5C7.5 15.1875 7.5 14.8359 7.53906 14.5234L5.85938 13C5.58594 12.7266 5.46875 12.375 5.625 12.0234C5.78125 11.5547 5.97656 11.125 6.21094 10.6953L6.40625 10.3828C6.67969 9.95312 6.95312 9.52344 7.26562 9.13281C7.5 8.85938 7.89062 8.78125 8.24219 8.89844L10.3906 9.5625C10.9375 9.17188 11.5234 8.82031 12.1094 8.58594L12.6172 6.35938C12.6953 6.00781 12.9688 5.73438 13.3203 5.65625C13.8672 5.57812 14.4141 5.5 15 5.5C15.5469 5.5 16.0938 5.57812 16.6406 5.65625C16.9922 5.73438 17.2656 6.00781 17.3438 6.35938L17.8516 8.58594C18.4375 8.82031 19.0234 9.17188 19.5703 9.5625L21.7188 8.89844C22.0703 8.78125 22.4609 8.85938 22.6953 9.13281C23.0078 9.52344 23.2812 9.95312 23.5547 10.3828L23.75 10.6953C23.9844 11.125 24.1797 11.5547 24.3359 12.0234ZM15 18.625C16.7188 18.625 18.125 17.2578 18.125 15.5C18.125 13.7812 16.7188 12.375 15 12.375C13.2422 12.375 11.875 13.7812 11.875 15.5C11.875 17.2578 13.2422 18.625 15 18.625Z" fill="#263238"/>
</svg>
