<svg width="30" height="30" viewBox="0 0 30 30" fill="none" xmlns="http://www.w3.org/2000/svg">
<path d="M9.92188 23.4297C9.6875 24.0547 8.98438 24.4062 8.32031 24.2109C7.69531 23.9766 7.34375 23.2734 7.53906 22.6094L12.5391 7.60938C12.7734 6.98438 13.4766 6.63281 14.1406 6.82812C14.7656 7.0625 15.1172 7.76562 14.9219 8.42969L9.92188 23.4297ZM17.6953 6.78906C18.3594 6.90625 18.8281 7.53125 18.7109 8.23438L16.2109 23.2344C16.0938 23.8984 15.4688 24.3672 14.7656 24.25C14.1016 24.1328 13.6328 23.5078 13.75 22.8047L16.25 7.80469C16.3672 7.14062 16.9922 6.67188 17.6953 6.78906ZM21.25 6.75C21.9141 6.75 22.5 7.33594 22.5 8V23C22.5 23.7031 21.9141 24.25 21.25 24.25C20.5469 24.25 20 23.7031 20 23V8C20 7.33594 20.5469 6.75 21.25 6.75Z" fill="#212121"/>
</svg>
